<svg data-v-423bf9ae="" xmlns="http://www.w3.org/2000/svg" viewBox="0 0 586.0140853162171 60" class="font"><!----><!----><defs data-v-423bf9ae=""><linearGradient data-v-423bf9ae="" gradientTransform="rotate(25)" id="6a6e4352-ed77-47ad-8997-0a91b41b7762" x1="0%" y1="0%" x2="100%" y2="0%"><stop data-v-423bf9ae="" offset="0%" style="stop-color: rgb(103, 99, 93); stop-opacity: 1;"></stop><stop data-v-423bf9ae="" offset="100%" style="stop-color: rgb(255, 214, 173); stop-opacity: 1;"></stop></linearGradient></defs><g data-v-423bf9ae="" id="5a0e5117-e2c9-4756-9edb-117597e5fdba" fill="url(#6a6e4352-ed77-47ad-8997-0a91b41b7762)" transform="matrix(6.0544899243017465,0,0,6.0544899243017465,-0.18163039531032155,-17.558020404201905)"><path d="M9.31 12.67L7.98 12.67L6.88 9.86L2.49 9.86L1.38 12.67L0.03 12.67L3.96 3.04L5.44 3.04L9.31 12.67ZM4.87 4.59L4.68 4.03L4.62 4.22Q4.45 4.79 4.12 5.67L4.12 5.67L2.88 8.84L6.49 8.84L5.25 5.66Q5.06 5.19 4.87 4.59L4.87 4.59ZM18.31 12.67L16.73 12.67L11.58 4.47L11.61 5.13L11.65 6.28L11.65 12.67L10.49 12.67L10.49 3.04L12.00 3.04L17.21 11.30Q17.13 9.96 17.13 9.36L17.13 9.36L17.13 3.04L18.31 3.04L18.31 12.67ZM28.42 12.67L26.84 12.67L21.69 4.47L21.72 5.13L21.76 6.28L21.76 12.67L20.60 12.67L20.60 3.04L22.11 3.04L27.32 11.30Q27.24 9.96 27.24 9.36L27.24 9.36L27.24 3.04L28.42 3.04L28.42 12.67ZM32.16 12.67L30.85 12.67L30.85 3.04L32.16 3.04L32.16 12.67ZM40.77 12.67L34.60 12.67L34.60 3.04L35.90 3.04L35.90 11.61L40.77 11.61L40.77 12.67ZM48.56 12.67L42.38 12.67L42.38 3.04L43.69 3.04L43.69 11.61L48.56 11.61L48.56 12.67ZM65.56 3.04L62.72 12.67L61.16 12.67L59.49 6.56Q59.33 5.98 59.01 4.50L59.01 4.50Q58.84 5.29 58.71 5.82Q58.59 6.36 56.85 12.67L56.85 12.67L55.29 12.67L52.45 3.04L53.81 3.04L55.54 9.16Q55.85 10.31 56.11 11.53L56.11 11.53Q56.27 10.77 56.49 9.88Q56.70 9.00 58.39 3.04L58.39 3.04L59.64 3.04L61.31 9.04Q61.69 10.51 61.91 11.53L61.91 11.53L61.97 11.29Q62.16 10.50 62.28 10.00Q62.39 9.51 64.20 3.04L64.20 3.04L65.56 3.04ZM75.82 7.81L75.82 7.81Q75.82 9.32 75.25 10.46Q74.67 11.59 73.59 12.20Q72.51 12.81 71.04 12.81L71.04 12.81Q69.56 12.81 68.48 12.21Q67.40 11.61 66.83 10.47Q66.27 9.33 66.27 7.81L66.27 7.81Q66.27 5.50 67.53 4.20Q68.80 2.90 71.05 2.90L71.05 2.90Q72.52 2.90 73.60 3.48Q74.68 4.07 75.25 5.18Q75.82 6.30 75.82 7.81ZM74.49 7.81L74.49 7.81Q74.49 6.02 73.59 4.99Q72.69 3.96 71.05 3.96L71.05 3.96Q69.40 3.96 68.50 4.98Q67.59 5.99 67.59 7.81L67.59 7.81Q67.59 9.63 68.51 10.69Q69.42 11.75 71.04 11.75L71.04 11.75Q72.71 11.75 73.60 10.72Q74.49 9.69 74.49 7.81ZM86.71 7.81L86.71 7.81Q86.71 9.32 86.14 10.46Q85.56 11.59 84.48 12.20Q83.40 12.81 81.93 12.81L81.93 12.81Q80.45 12.81 79.37 12.21Q78.29 11.61 77.72 10.47Q77.16 9.33 77.16 7.81L77.16 7.81Q77.16 5.50 78.42 4.20Q79.69 2.90 81.94 2.90L81.94 2.90Q83.41 2.90 84.49 3.48Q85.57 4.07 86.14 5.18Q86.71 6.30 86.71 7.81ZM85.38 7.81L85.38 7.81Q85.38 6.02 84.48 4.99Q83.58 3.96 81.94 3.96L81.94 3.96Q80.29 3.96 79.39 4.98Q78.48 5.99 78.48 7.81L78.48 7.81Q78.48 9.63 79.40 10.69Q80.31 11.75 81.93 11.75L81.93 11.75Q83.60 11.75 84.49 10.72Q85.38 9.69 85.38 7.81ZM96.82 7.76L96.82 7.76Q96.82 9.25 96.24 10.37Q95.66 11.48 94.60 12.08Q93.53 12.67 92.13 12.67L92.13 12.67L88.53 12.67L88.53 3.04L91.72 3.04Q94.17 3.04 95.49 4.27Q96.82 5.50 96.82 7.76ZM95.51 7.76L95.51 7.76Q95.51 5.97 94.53 5.03Q93.55 4.09 91.69 4.09L91.69 4.09L89.84 4.09L89.84 11.63L91.98 11.63Q93.04 11.63 93.85 11.16Q94.65 10.70 95.08 9.82Q95.51 8.95 95.51 7.76Z"></path></g><!----><!----></svg>